<svg width="176" height="251" viewBox="0 0 176 251" fill="none" xmlns="http://www.w3.org/2000/svg">
<path d="M44.8189 114.258C44.8189 181.738 44.5538 228.798 44.2224 228.798C43.0957 228.798 35.2086 222.085 31.1657 217.704C24.8031 210.921 20.5613 204.42 16.3196 195.235C9.69181 180.961 7.23955 168.737 7.90232 153.898C8.89648 131.923 17.2474 112.067 31.8285 96.6635L36.2028 92.1412V86.9123V81.7541L31.0994 86.2057C16.3196 99.2072 5.84772 118.285 1.67224 139.978C-0.183534 149.729 -0.249811 164.709 1.60596 174.814C4.721 191.631 10.4871 204.491 20.7602 217.634C33.8831 234.451 52.242 245.827 72.5229 249.714C79.5483 251.056 94.2619 251.197 101.486 249.996C146.754 242.577 179.296 198.202 175.319 149.376C173.331 125.069 161.799 101.256 144.699 86.2057L139.596 81.7541V86.9123V92.1412L143.97 96.6635C165.709 119.557 173.596 153.616 164.052 183.788C160.075 196.506 153.249 208.448 144.633 217.704C140.59 222.085 132.703 228.798 131.576 228.798C131.245 228.798 130.98 212.334 130.98 189.37V150.012L119.779 143.441C113.615 139.908 108.445 136.94 108.18 136.94C107.981 136.94 107.716 160.187 107.65 188.663L107.451 240.386L105.794 240.81C104.866 241.093 103.143 241.517 102.016 241.729L99.8292 242.153L99.6967 161.812L99.4978 81.4715L87.8993 74.6881L76.3007 67.8341L76.1019 155.029L75.9693 242.153L73.7822 241.729C72.6554 241.517 70.9322 241.093 70.0043 240.81L68.3474 240.386L68.1486 126.623L68.016 12.931L57.0802 6.57162C51.049 3.0386 45.813 0.0708771 45.4817 0.000213623C45.0177 -0.141098 44.8189 39.9233 44.8189 114.258Z" fill="url(#paint0_linear_310_4)"/>
<defs>
<linearGradient id="paint0_linear_310_4" x1="81" y1="66.5" x2="75.5" y2="439.5" gradientUnits="userSpaceOnUse">
<stop stop-color="#3C77C0"/>
<stop offset="1" stop-color="#3C77C0" stop-opacity="0"/>
</linearGradient>
</defs>
</svg>
